<?xml version="1.0" encoding="UTF-8" standalone="no"?>
<!DOCTYPE svg PUBLIC "-//W3C//DTD SVG 1.1//EN" "http://www.w3.org/Graphics/SVG/1.1/DTD/svg11.dtd">
<svg version="1.1" xmlns="http://www.w3.org/2000/svg" xmlns:xlink="http://www.w3.org/1999/xlink" preserveAspectRatio="xMidYMid meet" viewBox="0 0 691 691" width="691" height="691"><defs><path d="M691 345.5C691 536.19 536.19 691 345.5 691C154.81 691 0 536.19 0 345.5C0 154.81 154.81 0 345.5 0C536.19 0 691 154.81 691 345.5Z" id="bLyoJPaAJ"></path><path d="M234.57 79.7C209.21 86.51 180.18 102.09 155.95 121.96C142.35 133.13 130.55 145.09 117.9 160.55C111.84 167.89 98.03 188.13 93.56 196.07C73.41 232.14 62.82 265.87 60.08 302.81C59.19 314.65 59.7 331.85 61.15 340.01C62.26 346.22 64.95 349.9 69.61 351.58C75.54 353.69 81.75 351.82 85.15 346.86C87.63 343.26 88.01 341.24 87.28 335.09C84.09 307.96 88.56 275.55 99.57 245.97C105.94 228.77 113.22 214.37 123.7 198.2C136.47 178.49 150.01 162.63 166.61 147.94C189.59 127.55 217.38 111.89 242.34 105.19C249.26 103.32 250.88 102.33 253.39 98.19C254.84 95.85 255.17 94.93 255.38 92.94C255.64 90.17 254.9 86.92 253.44 84.45C252.27 82.52 249.04 79.86 246.85 79.04C243.44 77.82 241.08 77.94 234.57 79.7Z" id="c7WuujpNv"></path><path d="M515.26 212.18C513.97 216.14 514.25 218.34 516.84 224.48C526.87 248.3 531.57 279.85 529.57 310.5C528.15 332.62 523.94 353.05 516.23 375.22C509.89 393.42 502.99 408.01 493.33 423.59C476.73 450.45 453.88 473.86 430.51 488C425.21 491.2 423.84 492.74 422.52 496.9C420.29 503.87 423.99 510.82 431.1 513.22C436.24 514.97 440.27 513.64 450.79 506.72C456.17 503.18 467.52 494.35 472.68 489.66C500.17 464.82 520.3 435.77 536.41 397.71C539.93 389.31 547.44 365.99 549.51 356.7C553.95 337.22 556.15 320.56 556.62 302.98C557.44 271.65 551.96 239.3 541.73 214.96C539.61 209.81 538.35 207.82 536.15 205.95C534.7 204.69 530.62 202.99 528.79 202.89C522.67 202.51 517.18 206.27 515.26 212.18Z" id="cER7G8OcS"></path><path d="M250.55 147.18C232.44 153.39 213.58 164.55 198.05 178.35C171.93 201.5 151.95 233.18 142.97 265.52C137.5 285.38 135.49 307.85 137.85 322.94C138.53 327.2 139.31 329.06 141.48 331.48C147.74 338.57 159.73 336.57 163.37 327.83C164.56 325.02 164.7 322.98 164.14 318.28C163.22 310.87 163.41 301.68 164.62 292.25C169.59 254.2 192.08 215.86 223.62 191.87C237.03 181.67 251.12 174.4 264.63 170.72C266.56 170.18 269.01 169.22 270.05 168.6C278.04 163.75 278.46 152.54 270.94 146.88C269.63 145.94 268.01 145.04 267.11 144.76C263.07 143.64 259.34 144.16 250.55 147.18Z" id="a5XywtmT9"></path><path d="M446.48 236.61C442.06 241.05 441.34 246.31 444.19 253.16C451.81 271.43 454.48 295.5 451.48 318.8C448.68 340.1 441.06 361.98 429.95 380.48C420.22 396.67 406.06 412.07 393.01 420.65C383.54 426.87 383.42 426.99 381.6 430.95C380.29 433.83 380.41 438.01 381.84 441.24C384.43 446.88 389.99 449.89 396.16 448.96C401.81 448.12 416.97 437.13 428.29 425.72C440.69 413.17 451.86 397.66 459.2 382.73C474.41 351.91 480.94 320.78 479.01 288.48C477.79 268.11 470.58 241.98 464.7 236.55C462.56 234.61 458.59 232.95 456.07 232.95C452.34 232.98 448.69 234.4 446.48 236.61Z" id="aqpqTU8PF"></path><path d="M269.55 219.84C258.95 224.34 249.03 231.49 239.49 241.51C235.16 246.08 225.37 260.54 222.73 266.26C215.53 281.94 212.52 298.24 214.28 311.97C214.78 315.87 215.55 317.81 217.62 320.31C220.34 323.57 225.08 325.41 229.5 324.84C234.43 324.23 239.27 319.82 240.45 314.92C240.77 313.61 240.87 310.93 240.71 308.92C239.46 293.59 244.7 277.71 255.55 263.93C263.94 253.23 274.44 245.71 285.6 242.35C290.63 240.81 291.96 239.9 294.34 236.39C296.06 233.85 296.35 233.14 296.65 231.02C297.08 228.13 296.3 224.51 294.85 222.1C293.67 220.26 289.48 216.91 287.69 216.4C283.35 215.17 278.45 216.09 269.55 219.84Z" id="b1cC4QldLM"></path><path d="M372.96 275.4C372.6 278.42 372.8 279.69 374.25 283.51C377.25 291.44 378.34 299.28 377.73 308.38C376.89 321.13 371.94 335.07 364.66 345.23C361.38 349.83 355.64 355.65 351.64 358.41C346.31 362.09 344.83 363.47 343.55 365.86C339.95 372.47 342.77 380.95 349.72 384.12C354.1 386.17 359.12 385.49 364.26 382.16C373.68 376.08 382.39 367.09 388.99 356.75C392.38 351.41 393.43 349.47 396.12 343.36C403.73 326.19 406.29 307.05 403.36 289.35C402.01 281.3 398.99 272.3 396.67 269.27C394.23 266.07 389.69 263.89 385.78 263.98C379.25 264.09 373.71 269.03 372.96 275.4Z" id="e2RVyq9Lu"></path><path d="M281.58 290.37C279.38 294.74 278.87 297.1 278.87 302.37C278.87 306.42 279.02 307.56 279.97 310.31C282.13 316.92 287.05 322.54 293.38 325.57C297.58 327.57 300.34 328.2 305.09 328.2C309.62 328.2 311.82 327.65 316.34 325.49C325.62 321.05 331.4 311.26 330.81 300.99C330.14 289.35 322.44 279.8 311.43 277C307.45 275.98 301.91 275.98 297.98 277C290.9 278.85 284.92 283.77 281.58 290.37Z" id="be9XI7Mgt"></path><path d="M290.23 373.46C289.4 375.27 286.69 384.59 277.06 418.96C275.56 424.27 272.38 435.59 269.98 444.13C267.58 452.66 264.04 465.24 262.11 472.05C260.19 478.85 255.43 495.76 251.54 509.6C233.37 574.21 230.66 583.84 230.66 583.96C230.66 584.04 264.63 584.12 306.16 584.12C347.68 584.12 381.66 584.04 381.66 583.96C381.66 583.88 378.55 572.79 374.74 559.3C370.96 545.82 366.44 529.81 364.75 523.76C363.06 517.7 358.26 500.71 354.13 486.01C350 471.3 345.2 454.31 343.51 448.26C328.02 393.05 322.91 375.23 322.08 373.46C319.33 367.41 314.06 362.77 309.22 362.14C308.28 361.98 307.18 361.82 306.75 361.79C306.31 361.71 304.94 361.82 303.72 361.98C298.25 362.77 293.1 367.13 290.23 373.46Z" id="b1MeAUnKp2"></path><path d="M603.9 115.82C618.47 133.21 627.32 144.19 630.46 148.76C651.62 179.54 671.18 217.11 680.91 253.64C701.11 329.51 689.12 414.77 670.16 464.66C642.06 538.57 624.97 555.27 575.55 604.24C542.61 636.89 508.01 657.9 471.76 667.27C471.82 667.22 471.85 667.18 471.87 667.17C615.09 526.88 667.44 318.08 607.36 126.81C606.9 125.35 605.75 121.68 603.9 115.82Z" id="f1c8hkIxBa"></path><path d="M414.35 684.53C369.78 693.61 323.85 693.88 279.18 685.32C279.07 685.3 278.82 685.25 278.41 685.17C276.87 684.83 275.9 684.62 275.52 684.54C228.45 674.18 183.88 654.66 144.36 627.08C144.06 626.87 143.31 626.34 142.1 625.5L394.82 624.17C405.94 655.9 412.89 675.73 415.67 683.67C415.77 683.96 415.59 684.28 415.28 684.34C401.59 687.13 414.65 684.47 414.35 684.53Z" id="b5HeIyVfu"></path></defs><g><g><g><use xlink:href="#bLyoJPaAJ" opacity="1" fill="#0e4985" fill-opacity="1"></use></g><g><use xlink:href="#c7WuujpNv" opacity="1" fill="#fefefe" fill-opacity="1"></use><g><use xlink:href="#c7WuujpNv" opacity="1" fill-opacity="0" stroke="#000000" stroke-width="1" stroke-opacity="0"></use></g></g><g><use xlink:href="#cER7G8OcS" opacity="1" fill="#fefefe" fill-opacity="1"></use><g><use xlink:href="#cER7G8OcS" opacity="1" fill-opacity="0" stroke="#000000" stroke-width="1" stroke-opacity="0"></use></g></g><g><use xlink:href="#a5XywtmT9" opacity="1" fill="#fefefe" fill-opacity="1"></use><g><use xlink:href="#a5XywtmT9" opacity="1" fill-opacity="0" stroke="#000000" stroke-width="1" stroke-opacity="0"></use></g></g><g><use xlink:href="#aqpqTU8PF" opacity="1" fill="#fefefe" fill-opacity="1"></use><g><use xlink:href="#aqpqTU8PF" opacity="1" fill-opacity="0" stroke="#000000" stroke-width="1" stroke-opacity="0"></use></g></g><g><use xlink:href="#b1cC4QldLM" opacity="1" fill="#fefefe" fill-opacity="1"></use><g><use xlink:href="#b1cC4QldLM" opacity="1" fill-opacity="0" stroke="#000000" stroke-width="1" stroke-opacity="0"></use></g></g><g><use xlink:href="#e2RVyq9Lu" opacity="1" fill="#fefefe" fill-opacity="1"></use><g><use xlink:href="#e2RVyq9Lu" opacity="1" fill-opacity="0" stroke="#000000" stroke-width="1" stroke-opacity="0"></use></g></g><g><use xlink:href="#be9XI7Mgt" opacity="1" fill="#fefefe" fill-opacity="1"></use><g><use xlink:href="#be9XI7Mgt" opacity="1" fill-opacity="0" stroke="#000000" stroke-width="1" stroke-opacity="0"></use></g></g><g><use xlink:href="#b1MeAUnKp2" opacity="1" fill="#fefefe" fill-opacity="1"></use><g><use xlink:href="#b1MeAUnKp2" opacity="1" fill-opacity="0" stroke="#000000" stroke-width="1" stroke-opacity="0"></use></g></g><g><use xlink:href="#f1c8hkIxBa" opacity="1" fill="#fdd000" fill-opacity="1"></use></g><g><use xlink:href="#b5HeIyVfu" opacity="1" fill="#fdd000" fill-opacity="1"></use></g></g></g></svg>